# xmcd
#
# Track frame offsets:
#	150
#	12425
#	28532
#	42477
#	57841
#	73687
#	87133
#	101576
#	116782
#	133013
#	150411
#	163799
#	183269
#	201701
#	216311
#	228561
#	245712
#	260855
#	280378
#
# Disc length: 3942 seconds
#
# Revision: 1
# Processed by: cddbd v1.5.2PL0 Copyright (c) Steve Scherf et al.
# Submitted via: audiograbber 1.83.01
#
DISCID=230f6413
DTITLE=Various Artist - Hott Country 150
DYEAR=2008
DGENRE=Country
TTITLE0=Kenny Chesney - Everybody Wants to go to Heaven
TTITLE1=Toby Keith - She Never Cried In Front Of Me ( Radio Edit )
TTITLE2=Deric Ruttan - Lovin' You Is Killin' Me
TTITLE3=Miranda Lambert - More Like Her
TTITLE4=Carly Rae Jepsen - Sunshine On My Shoulder
TTITLE5=Kristy Lee Cook - 15 Minutes Of Shame
TTITLE6=Higgins - Real Thing
TTITLE7=Shane Yellowbird - Life Is Calling My Name ( Radio Edit )
TTITLE8=Pat Green - Let Me
TTITLE9=Montgomery Gentry - Roll With Me
TTITLE10=Haymaker Feat Zach Warner - Go For A Ride ( Radio Edit )
TTITLE11=Carrie Underwood - Just A Dream ( Radio Edit )
TTITLE12=risha Yearwood - They Call It Falling For A Reason
TTITLE13=Carolina Rain - American Radio
TTITLE14=Chris Cummings - Hey What You Know
TTITLE15=Little Big Town - Fine Line
TTITLE16=One Flew South - My Kind Of Beautiful
TTITLE17=Hayes Carll - Bad Liver And A Broken Heart
TTITLE18=Dwight Yoakam - A Thousnad Miles From Nowhere
EXTD=August 2008
EXTT0=
EXTT1=
EXTT2=
EXTT3=
EXTT4=
EXTT5=
EXTT6=
EXTT7=
EXTT8=
EXTT9=
EXTT10=
EXTT11=
EXTT12=
EXTT13=
EXTT14=
EXTT15=
EXTT16=
EXTT17=
EXTT18=
PLAYORDER=
